<svg width="1499" height="900" xmlns="http://www.w3.org/2000/svg" xmlns:xlink="http://www.w3.org/1999/xlink" overflow="hidden"><g transform="translate(-1704 -148)"><path d="M1734 811.668C1734 789.207 1752.21 771 1774.67 771L1848.67 771 1848.67 771 2020.67 771 2381.33 771C2403.79 771 2422 789.207 2422 811.668L2422 913.333 2422 913.333 2422 974.333 2422 974.332C2422 996.792 2403.79 1015 2381.33 1015L2020.67 1015 1926.75 1026.81 1848.67 1015 1774.67 1015C1752.21 1015 1734 996.792 1734 974.332L1734 974.333 1734 913.333 1734 913.333Z" stroke="#000000" stroke-width="2" stroke-miterlimit="8" fill="none" fill-rule="evenodd"/><path d="M1923.76 895.49 2115.76 895.49 2115.76 915.49 1923.76 915.49Z" fill="#FFFF00" fill-rule="evenodd"/><path d="M2115.76 895.49 2120.43 895.49 2120.43 915.49 2115.76 915.49Z" fill="#FFFF00" fill-rule="evenodd"/><path d="M2120.43 895.49 2167.1 895.49 2167.1 915.49 2120.43 915.49Z" fill="#FFFF00" fill-rule="evenodd"/><path d="M1919.6 919.49 2122.75 919.49 2122.75 939.49 1919.6 939.49Z" fill="#FFFF00" fill-rule="evenodd"/><path d="M2122.75 919.49 2127.42 919.49 2127.42 939.49 2122.75 939.49Z" fill="#FFFF00" fill-rule="evenodd"/><path d="M2127.42 919.49 2174.08 919.49 2174.08 939.49 2127.42 939.49Z" fill="#FFFF00" fill-rule="evenodd"/><path d="M1923.76 967.49 1989.6 967.49 1989.6 987.49 1923.76 987.49Z" fill="#00FF00" fill-rule="evenodd"/><path d="M1989.6 967.49 2082.93 967.49 2082.93 987.49 1989.6 987.49Z" fill="#00FF00" fill-rule="evenodd"/><path d="M2082.93 967.49 2087.6 967.49 2087.6 987.49 2082.93 987.49Z" fill="#00FF00" fill-rule="evenodd"/><path d="M2087.6 967.49 2221.72 967.49 2221.72 987.49 2087.6 987.49Z" fill="#00FF00" fill-rule="evenodd"/><text font-family="Times New Roman,Times New Roman_MSFontService,sans-serif" font-weight="400" font-size="19" transform="translate(1755.26 815)">There is an erroneous sentence between '&lt;erroneous sentence&gt;' and '&lt;/erroneous</text><text font-family="Times New Roman,Times New Roman_MSFontService,sans-serif" font-weight="400" font-size="19" transform="translate(1755.26 839)">sentence&gt;'. Then grammatical errors in the erroneous sentence will be corrected. The</text><text font-family="Times New Roman,Times New Roman_MSFontService,sans-serif" font-weight="400" font-size="19" transform="translate(1755.26 863)">corrected version will be between '&lt;corrected sentence&gt;' and '&lt;/corrected sentence&gt;’.</text><text font-family="Times New Roman,Times New Roman_MSFontService,sans-serif" font-weight="400" font-size="19" transform="translate(1755.26 911)">&lt;erroneous sentence&gt;</text><text font-family="Times New Roman,Times New Roman_MSFontService,sans-serif" font-weight="700" font-size="19" transform="translate(1923.76 911)">that have limitation also</text><text font-family="Times New Roman,Times New Roman_MSFontService,sans-serif" font-weight="700" font-size="19" transform="translate(2115.76 911)"></text><text font-family="Times New Roman,Times New Roman_MSFontService,sans-serif" font-weight="400" font-size="19" transform="translate(2120.43 911)">there.</text><text font-family="Times New Roman,Times New Roman_MSFontService,sans-serif" font-weight="400" font-size="19" transform="translate(2167.1 911)">&lt;/erroneous sentence&gt;</text><path d="M1924.26 914.49 2020.26 914.49 2116.26 914.49 2116.26 915.49 2020.26 915.49 1924.26 915.49Z" fill-rule="evenodd"/><text font-family="Times New Roman,Times New Roman_MSFontService,sans-serif" font-weight="400" font-size="19" transform="translate(1755.26 935)">&lt;corrected sentence&gt;</text><text font-family="Times New Roman,Times New Roman_MSFontService,sans-serif" font-weight="700" font-size="19" transform="translate(1919.6 935)">There are also limitations</text><text font-family="Times New Roman,Times New Roman_MSFontService,sans-serif" font-weight="700" font-size="19" transform="translate(2122.75 935)"></text><text font-family="Times New Roman,Times New Roman_MSFontService,sans-serif" font-weight="400" font-size="19" transform="translate(2127.42 935)">there.</text><text font-family="Times New Roman,Times New Roman_MSFontService,sans-serif" font-weight="400" font-size="19" transform="translate(2174.08 935)">&lt;/corrected sentence&gt;</text><path d="M1919.26 938.49 2020.76 938.49 2122.26 938.49 2122.26 939.49 2020.76 939.49 1919.26 939.49Z" fill-rule="evenodd"/><text font-family="Times New Roman,Times New Roman_MSFontService,sans-serif" font-weight="400" font-size="19" transform="translate(1755.26 983)">&lt;erroneous sentence&gt;</text><text font-family="Times New Roman,Times New Roman_MSFontService,sans-serif" font-weight="400" font-size="19" transform="translate(1923.76 983)">So, they</text><text font-family="Times New Roman,Times New Roman_MSFontService,sans-serif" font-weight="700" font-size="19" transform="translate(1989.6 983)">have to also</text><text font-family="Times New Roman,Times New Roman_MSFontService,sans-serif" font-weight="700" font-size="19" transform="translate(2082.93 983)"></text><text font-family="Times New Roman,Times New Roman_MSFontService,sans-serif" font-weight="400" font-size="19" transform="translate(2087.6 983)">prepare mentally.</text><text font-family="Times New Roman,Times New Roman_MSFontService,sans-serif" font-weight="400" font-size="19" transform="translate(2221.72 983)">&lt;/erroneous sentence&gt;</text><path d="M1989.26 986.49 2083.26 986.49 2083.26 987.49 1989.26 987.49Z" fill-rule="evenodd"/><path d="M1781.51 757 1838.49 757C1845.95 757 1852 763.044 1852 770.5 1852 777.956 1845.95 784 1838.49 784L1781.51 784C1774.05 784 1768 777.956 1768 770.5 1768 763.044 1774.05 757 1781.51 757Z" stroke="#000000" stroke-width="2" stroke-miterlimit="8" fill="#BDD7EE" fill-rule="evenodd"/><text font-family="Times New Roman,Times New Roman_MSFontService,sans-serif" font-weight="400" font-size="16" transform="translate(1786.33 776)">Prompt</text><path d="M2571.84 881.287C2570.57 873.487 2577.1 866.304 2586.43 865.243 2590.21 864.813 2594.05 865.456 2597.34 867.068 2600.82 861.571 2608.97 859.482 2615.53 862.402 2616.68 862.912 2617.73 863.559 2618.66 864.323 2621.38 859.766 2627.99 857.915 2633.43 860.188 2634.94 860.817 2636.25 861.727 2637.27 862.848 2641.65 858.538 2649.38 858.006 2654.55 861.659 2656.72 863.194 2658.18 865.311 2658.68 867.648 2665.85 869.285 2670.08 875.484 2668.13 881.495 2667.97 882 2667.76 882.496 2667.51 882.977 2673.26 889.24 2671.86 898.217 2664.37 903.028 2662.04 904.525 2659.29 905.495 2656.38 905.843 2656.31 912.581 2649.72 918 2641.66 917.946 2638.97 917.927 2636.34 917.287 2634.05 916.095 2631.32 923.649 2621.81 927.919 2612.81 925.632 2609.03 924.673 2605.77 922.646 2603.58 919.896 2594.36 924.548 2582.4 922.046 2576.85 914.306 2576.78 914.208 2576.71 914.11 2576.65 914.011 2570.61 914.602 2565.15 911 2564.44 905.965 2564.06 903.282 2565.12 900.596 2567.33 898.623 2562.11 896.05 2560.35 890.402 2563.41 886.008 2565.18 883.473 2568.27 881.797 2571.75 881.495Z" stroke="#000000" stroke-width="2" stroke-miterlimit="8" fill="#D6DCE5" fill-rule="evenodd"/><path d="M2573.84 899.599C2571.61 899.745 2569.38 899.313 2567.45 898.362M2579.48 913.126C2578.58 913.424 2577.64 913.623 2576.68 913.717M2603.58 919.626C2602.9 918.779 2602.34 917.874 2601.89 916.927M2634.73 912.896C2634.64 913.9 2634.41 914.893 2634.06 915.857M2648.11 894.6C2653.17 896.659 2656.36 900.965 2656.32 905.667M2667.46 882.813C2666.64 884.414 2665.39 885.834 2663.81 886.963M2658.7 867.415C2658.84 868.062 2658.9 868.718 2658.89 869.375M2635.37 865.129C2635.84 864.225 2636.47 863.383 2637.24 862.63M2617.86 866.32C2618.06 865.573 2618.36 864.849 2618.77 864.165M2597.32 867.052C2598.51 867.636 2599.62 868.338 2600.6 869.144M2572.41 883.488C2572.15 882.768 2571.96 882.032 2571.84 881.287" stroke="#000000" stroke-width="2" stroke-miterlimit="8" fill="none" fill-rule="evenodd"/><text font-family="Times New Roman,Times New Roman_MSFontService,sans-serif" font-weight="400" font-size="19" transform="translate(2592.63 898)">LLM</text><path d="M2517 762.667C2517 756.223 2522.22 751 2528.67 751L2626.67 751 2626.67 751 2791.17 751 3163.33 751C3169.78 751 3175 756.223 3175 762.667L3175 791.833 3175 791.833 3175 809.333 3175 809.333C3175 815.777 3169.78 821 3163.33 821L2791.17 821 2708.92 829.75 2626.67 821 2528.67 821C2522.22 821 2517 815.777 2517 809.333L2517 809.333 2517 791.833 2517 791.833Z" stroke="#000000" stroke-width="2" stroke-miterlimit="8" fill="none" fill-rule="evenodd"/><path d="M2696.68 776.996 2762.51 776.996 2762.51 796.996 2696.68 796.996Z" fill="#00FF00" fill-rule="evenodd"/><path d="M2762.51 776.996 2855.85 776.996 2855.85 796.996 2762.51 796.996Z" fill="#00FF00" fill-rule="evenodd"/><path d="M2855.85 776.996 2860.51 776.996 2860.51 796.996 2855.85 796.996Z" fill="#00FF00" fill-rule="evenodd"/><path d="M2860.51 776.996 2989.97 776.996 2989.97 796.996 2860.51 796.996Z" fill="#00FF00" fill-rule="evenodd"/><text font-family="Times New Roman,Times New Roman_MSFontService,sans-serif" font-weight="400" font-size="19" transform="translate(2532.35 793)">&lt;corrected sentence&gt;</text><text font-family="Times New Roman,Times New Roman_MSFontService,sans-serif" font-weight="400" font-size="19" transform="translate(2696.68 793)">So, they</text><text font-family="Times New Roman,Times New Roman_MSFontService,sans-serif" font-weight="700" font-size="19" transform="translate(2762.51 793)">also have to</text><text font-family="Times New Roman,Times New Roman_MSFontService,sans-serif" font-weight="700" font-size="19" transform="translate(2855.85 793)"></text><text font-family="Times New Roman,Times New Roman_MSFontService,sans-serif" font-weight="400" font-size="19" transform="translate(2860.51 793)">prepare mentally.</text><text font-family="Times New Roman,Times New Roman_MSFontService,sans-serif" font-weight="400" font-size="19" transform="translate(2994.63 793)">&lt;/corrected sentence&gt;</text><path d="M2762.74 795.996 2855.74 795.996 2855.74 796.996 2762.74 796.996Z" fill-rule="evenodd"/><path d="M2548.19 738 2603.81 738C2611.09 738 2617 743.82 2617 751 2617 758.18 2611.09 764 2603.81 764L2548.19 764C2540.91 764 2535 758.18 2535 751 2535 743.82 2540.91 738 2548.19 738Z" stroke="#000000" stroke-width="2" stroke-miterlimit="8" fill="#ADB9CA" fill-rule="evenodd"/><text font-family="Times New Roman,Times New Roman_MSFontService,sans-serif" font-weight="400" font-size="19" transform="translate(2550.19 758)">Output</text><path d="M1734 189.334C1734 183.627 1738.63 179 1744.33 179L2048.67 179C2054.37 179 2059 183.627 2059 189.334L2059 230.666C2059 236.373 2054.37 241 2048.67 241L1744.33 241C1738.63 241 1734 236.373 1734 230.666Z" stroke="#000000" stroke-width="2" stroke-miterlimit="8" fill="none" fill-rule="evenodd"/><path d="M1751.74 201.17 2041.03 201.17 2041.03 221.17 1751.74 221.17Z" fill="#00FF00" fill-rule="evenodd"/><text font-family="Times New Roman,Times New Roman_MSFontService,sans-serif" font-weight="400" font-size="19" transform="translate(1751.74 217)">So, they have to also prepare mentally.</text><path d="M1758.14 166 1800.86 166C1806.46 166 1811 172.044 1811 179.5 1811 186.956 1806.46 193 1800.86 193L1758.14 193C1752.54 193 1748 186.956 1748 179.5 1748 172.044 1752.54 166 1758.14 166Z" stroke="#000000" stroke-width="2" stroke-miterlimit="8" fill="#FFE699" fill-rule="evenodd"/><text font-family="Times New Roman,Times New Roman_MSFontService,sans-serif" font-weight="400" font-size="16" transform="translate(1762.68 185)">Input</text><path d="M1734 336.334C1734 316.267 1750.27 300 1770.33 300L1915.67 300C1935.73 300 1952 316.267 1952 336.334L1952 489.666C1952 509.733 1935.73 526 1915.67 526L1770.33 526C1750.27 526 1734 509.733 1734 489.666Z" stroke="#000000" stroke-width="2" stroke-miterlimit="8" fill="none" fill-rule="evenodd"/><path d="M1842.78 326.569 1842.78 506.791" stroke="#000000" stroke-width="1.33333" stroke-linejoin="round" stroke-miterlimit="10" fill="none" fill-rule="evenodd"/><path d="M1753.18 357.051 1932.38 357.051" stroke="#000000" stroke-width="1.33333" stroke-linejoin="round" stroke-miterlimit="10" fill="none" fill-rule="evenodd"/><path d="M1753.18 386.865 1932.38 386.865" stroke="#000000" stroke-width="1.33333" stroke-linejoin="round" stroke-miterlimit="10" fill="none" fill-rule="evenodd"/><path d="M1753.18 416.68 1932.38 416.68" stroke="#000000" stroke-width="1.33333" stroke-linejoin="round" stroke-miterlimit="10" fill="none" fill-rule="evenodd"/><path d="M1753.18 446.495 1932.38 446.495" stroke="#000000" stroke-width="1.33333" stroke-linejoin="round" stroke-miterlimit="10" fill="none" fill-rule="evenodd"/><path d="M1753.18 476.309 1932.38 476.309" stroke="#000000" stroke-width="1.33333" stroke-linejoin="round" stroke-miterlimit="10" fill="none" fill-rule="evenodd"/><path d="M1753.85 326.569 1753.85 506.791" stroke="#000000" stroke-width="1.33333" stroke-linejoin="round" stroke-miterlimit="10" fill="none" fill-rule="evenodd"/><path d="M1931.71 326.569 1931.71 506.791" stroke="#000000" stroke-width="1.33333" stroke-linejoin="round" stroke-miterlimit="10" fill="none" fill-rule="evenodd"/><path d="M1753.18 327.236 1932.38 327.236" stroke="#000000" stroke-width="1.33333" stroke-linejoin="round" stroke-miterlimit="10" fill="none" fill-rule="evenodd"/><path d="M1753.18 506.124 1932.38 506.124" stroke="#000000" stroke-width="1.33333" stroke-linejoin="round" stroke-miterlimit="10" fill="none" fill-rule="evenodd"/><text font-family="Times New Roman,Times New Roman_MSFontService,sans-serif" font-weight="700" font-size="13" transform="translate(1858.16 345)">Corrected</text><text font-family="Times New Roman,Times New Roman_MSFontService,sans-serif" font-weight="700" font-size="13" transform="translate(1768.31 345)">Erroneous</text><text font-family="Times New Roman,Times New Roman_MSFontService,sans-serif" font-weight="400" font-size="13" transform="translate(1854.66 375)">My town …</text><text font-family="Times New Roman,Times New Roman_MSFontService,sans-serif" font-weight="400" font-size="13" transform="translate(1765.73 375)">My town …</text><text font-family="Times New Roman,Times New Roman_MSFontService,sans-serif" font-weight="400" font-size="13" transform="translate(1880.58 405)">…</text><text font-family="Times New Roman,Times New Roman_MSFontService,sans-serif" font-weight="400" font-size="13" transform="translate(1791.65 405)">…</text><path d="M1853.33 422.48 1921.16 422.48 1921.16 437.48 1853.33 437.48Z" fill="#FFFF00" fill-rule="evenodd"/><text font-family="Times New Roman,Times New Roman_MSFontService,sans-serif" font-weight="400" font-size="13" transform="translate(1853.33 434)">There are …</text><path d="M1765.65 422.48 1830.98 422.48 1830.98 437.48 1765.65 437.48Z" fill="#FFFF00" fill-rule="evenodd"/><text font-family="Times New Roman,Times New Roman_MSFontService,sans-serif" font-weight="400" font-size="13" transform="translate(1765.65 434)">that have …</text><text font-family="Times New Roman,Times New Roman_MSFontService,sans-serif" font-weight="400" font-size="13" transform="translate(1880.58 464)">…</text><text font-family="Times New Roman,Times New Roman_MSFontService,sans-serif" font-weight="400" font-size="13" transform="translate(1791.65 464)">…</text><path d="M1853 482.109 1921.5 482.109 1921.5 497.109 1853 497.109Z" fill="#00FFFF" fill-rule="evenodd"/><text font-family="Times New Roman,Times New Roman_MSFontService,sans-serif" font-weight="400" font-size="13" transform="translate(1853 494)">Also, you …</text><path d="M1765.73 482.109 1830.9 482.109 1830.9 497.109 1765.73 497.109Z" fill="#00FFFF" fill-rule="evenodd"/><text font-family="Times New Roman,Times New Roman_MSFontService,sans-serif" font-weight="400" font-size="13" transform="translate(1765.73 494)">Also you …</text><path d="M1779.95 286 1864.05 286C1875.07 286 1884 292.044 1884 299.5 1884 306.956 1875.07 313 1864.05 313L1779.95 313C1768.93 313 1760 306.956 1760 299.5 1760 292.044 1768.93 286 1779.95 286Z" stroke="#000000" stroke-width="2" stroke-miterlimit="8" fill="#D9D9D9" fill-rule="evenodd"/><text font-family="Times New Roman,Times New Roman_MSFontService,sans-serif" font-weight="400" font-size="16" transform="translate(1777.55 305)">Training Data</text><path d="M2014 370.334C2014 364.627 2018.63 360 2024.33 360L2262.67 360C2268.37 360 2273 364.627 2273 370.334L2273 411.666C2273 417.373 2268.37 422 2262.67 422L2024.33 422C2018.63 422 2014 417.373 2014 411.666Z" stroke="#000000" stroke-width="2" stroke-miterlimit="8" fill="#E2F0D9" fill-rule="evenodd"/><text font-family="Times New Roman,Times New Roman_MSFontService,sans-serif" font-weight="700" font-size="19" transform="translate(2115.65 385)">Stage I</text><text font-family="Times New Roman,Times New Roman_MSFontService,sans-serif" font-weight="400" font-size="16" transform="translate(2047.71 405)">Word Similarity Computation</text><path d="M2339 384.334C2339 369.238 2351.24 357 2366.33 357L2521.67 357C2536.76 357 2549 369.238 2549 384.334L2549 493.666C2549 508.762 2536.76 521 2521.67 521L2366.33 521C2351.24 521 2339 508.762 2339 493.666Z" stroke="#000000" stroke-width="2" stroke-miterlimit="8" fill="none" fill-rule="evenodd"/><path d="M2444.15 382.463 2444.15 503.509" stroke="#000000" stroke-width="1.33333" stroke-linejoin="round" stroke-miterlimit="10" fill="none" fill-rule="evenodd"/><path d="M2354.35 413.058 2533.96 413.058" stroke="#000000" stroke-width="1.33333" stroke-linejoin="round" stroke-miterlimit="10" fill="none" fill-rule="evenodd"/><path d="M2354.35 442.986 2533.96 442.986" stroke="#000000" stroke-width="1.33333" stroke-linejoin="round" stroke-miterlimit="10" fill="none" fill-rule="evenodd"/><path d="M2354.35 472.914 2533.96 472.914" stroke="#000000" stroke-width="1.33333" stroke-linejoin="round" stroke-miterlimit="10" fill="none" fill-rule="evenodd"/><path d="M2355.02 382.463 2355.02 503.509" stroke="#000000" stroke-width="1.33333" stroke-linejoin="round" stroke-miterlimit="10" fill="none" fill-rule="evenodd"/><path d="M2533.29 382.463 2533.29 503.509" stroke="#000000" stroke-width="1.33333" stroke-linejoin="round" stroke-miterlimit="10" fill="none" fill-rule="evenodd"/><path d="M2354.35 383.13 2533.96 383.13" stroke="#000000" stroke-width="1.33333" stroke-linejoin="round" stroke-miterlimit="10" fill="none" fill-rule="evenodd"/><path d="M2354.35 502.842 2533.96 502.842" stroke="#000000" stroke-width="1.33333" stroke-linejoin="round" stroke-miterlimit="10" fill="none" fill-rule="evenodd"/><text font-family="Times New Roman,Times New Roman_MSFontService,sans-serif" font-weight="700" font-size="13" transform="translate(2459.64 401)">Corrected</text><text font-family="Times New Roman,Times New Roman_MSFontService,sans-serif" font-weight="700" font-size="13" transform="translate(2369.58 401)">Erroneous</text><path d="M2454.47 418.858 2522.97 418.858 2522.97 433.858 2454.47 433.858Z" fill="#00FFFF" fill-rule="evenodd"/><text font-family="Times New Roman,Times New Roman_MSFontService,sans-serif" font-weight="400" font-size="13" transform="translate(2454.47 431)">Also, you …</text><path d="M2367 418.858 2432.17 418.858 2432.17 433.858 2367 433.858Z" fill="#00FFFF" fill-rule="evenodd"/><text font-family="Times New Roman,Times New Roman_MSFontService,sans-serif" font-weight="400" font-size="13" transform="translate(2367 431)">Also you …</text><text font-family="Times New Roman,Times New Roman_MSFontService,sans-serif" font-weight="400" font-size="13" transform="translate(2482.06 461)">…</text><text font-family="Times New Roman,Times New Roman_MSFontService,sans-serif" font-weight="400" font-size="13" transform="translate(2392.92 461)">…</text><path d="M2454.81 478.714 2522.64 478.714 2522.64 493.714 2454.81 493.714Z" fill="#FFFF00" fill-rule="evenodd"/><text font-family="Times New Roman,Times New Roman_MSFontService,sans-serif" font-weight="400" font-size="13" transform="translate(2454.81 491)">There are …</text><path d="M2366.92 478.714 2432.25 478.714 2432.25 493.714 2366.92 493.714Z" fill="#FFFF00" fill-rule="evenodd"/><text font-family="Times New Roman,Times New Roman_MSFontService,sans-serif" font-weight="400" font-size="13" transform="translate(2366.92 491)">that have …</text><path d="M2377.41 343 2446.59 343C2455.65 343 2463 349.044 2463 356.5 2463 363.956 2455.65 370 2446.59 370L2377.41 370C2368.35 370 2361 363.956 2361 356.5 2361 349.044 2368.35 343 2377.41 343Z" stroke="#000000" stroke-width="2" stroke-miterlimit="8" fill="#F8CBAD" fill-rule="evenodd"/><text font-family="Times New Roman,Times New Roman_MSFontService,sans-serif" font-weight="400" font-size="16" transform="translate(2375.99 362)">Candidates</text><path d="M2607 255.668C2607 231.551 2626.55 212 2650.67 212L2825.33 212C2849.45 212 2869 231.551 2869 255.668L2869 467.332C2869 491.449 2849.45 511 2825.33 511L2650.67 511C2626.55 511 2607 491.449 2607 467.332Z" stroke="#000000" stroke-width="2" stroke-miterlimit="8" fill="#E2F0D9" fill-rule="evenodd"/><text font-family="Times New Roman,Times New Roman_MSFontService,sans-serif" font-weight="700" font-size="19" transform="translate(2706.76 248)">Stage II</text><text font-family="Times New Roman,Times New Roman_MSFontService,sans-serif" font-weight="400" font-size="16" transform="translate(2656.26 268)">Ungrammatical Syntactic</text><text font-family="Times New Roman,Times New Roman_MSFontService,sans-serif" font-weight="400" font-size="16" transform="translate(2662.1 287)">Similarity Computation</text><path d="M2649.5 422.5C2649.5 418.634 2652.63 415.5 2656.5 415.5 2660.37 415.5 2663.5 418.634 2663.5 422.5 2663.5 426.366 2660.37 429.5 2656.5 429.5 2652.63 429.5 2649.5 426.366 2649.5 422.5Z" stroke="#2E75B6" stroke-miterlimit="8" fill="#FFFFFF" fill-rule="evenodd"/><path d="M2635.5 447C2635.5 442.858 2638.63 439.5 2642.5 439.5 2646.37 439.5 2649.5 442.858 2649.5 447 2649.5 451.142 2646.37 454.5 2642.5 454.5 2638.63 454.5 2635.5 451.142 2635.5 447Z" stroke="#2E75B6" stroke-miterlimit="8" fill="#FFFFFF" fill-rule="evenodd"/><path d="M2663.5 446.5C2663.5 442.634 2666.86 439.5 2671 439.5 2675.14 439.5 2678.5 442.634 2678.5 446.5 2678.5 450.366 2675.14 453.5 2671 453.5 2666.86 453.5 2663.5 450.366 2663.5 446.5Z" stroke="#2E75B6" stroke-miterlimit="8" fill="#FFFFFF" fill-rule="evenodd"/><path d="M2678.5 469C2678.5 464.858 2681.63 461.5 2685.5 461.5 2689.37 461.5 2692.5 464.858 2692.5 469 2692.5 473.142 2689.37 476.5 2685.5 476.5 2681.63 476.5 2678.5 473.142 2678.5 469Z" stroke="#2E75B6" stroke-miterlimit="8" fill="#FFFFFF" fill-rule="evenodd"/><path d="M0.400557-0.299256 9.11145 11.3604 8.31034 11.9589-0.400557 0.299256ZM8.1581 2.40097 9.3048 12.4546-0.0109485 8.50407C-0.265176 8.39626-0.383872 8.10277-0.276062 7.84854-0.168253 7.59431 0.125236 7.47562 0.379464 7.58343L8.90609 11.1993 8.21411 11.7163 7.16454 2.5143C7.13325 2.23993 7.3303 1.99215 7.60466 1.96085 7.87902 1.92956 8.12681 2.12661 8.1581 2.40097Z" fill="#2E75B6" transform="matrix(-1 0 0 1 2651.8 427.5)"/><path d="M2661.89 427.191 2670.58 438.249 2669.8 438.867 2661.11 427.809ZM2669.41 429.316 2670.8 439.338 2661.4 435.617C2661.14 435.516 2661.01 435.225 2661.11 434.968 2661.22 434.712 2661.51 434.586 2661.76 434.687L2670.38 438.093 2669.7 438.627 2668.42 429.453C2668.38 429.18 2668.57 428.927 2668.85 428.889 2669.12 428.851 2669.37 429.042 2669.41 429.316Z" fill="#2E75B6"/><path d="M2676.87 451.167 2685.52 460.855 2684.77 461.521 2676.13 451.833ZM2683.79 452.012 2685.81 461.928 2676.18 458.801C2675.92 458.716 2675.78 458.434 2675.86 458.171 2675.95 457.909 2676.23 457.765 2676.49 457.85L2685.3 460.712 2684.65 461.288 2682.81 452.211C2682.76 451.941 2682.93 451.677 2683.2 451.622 2683.47 451.567 2683.74 451.742 2683.79 452.012Z" fill="#2E75B6"/><path d="M2735.5 422.5C2735.5 418.634 2738.86 415.5 2743 415.5 2747.14 415.5 2750.5 418.634 2750.5 422.5 2750.5 426.366 2747.14 429.5 2743 429.5 2738.86 429.5 2735.5 426.366 2735.5 422.5Z" stroke="#000000" stroke-miterlimit="8" fill="#FFFFFF" fill-rule="evenodd"/><path d="M2721.5 447C2721.5 442.858 2724.63 439.5 2728.5 439.5 2732.37 439.5 2735.5 442.858 2735.5 447 2735.5 451.142 2732.37 454.5 2728.5 454.5 2724.63 454.5 2721.5 451.142 2721.5 447Z" stroke="#000000" stroke-miterlimit="8" fill="#FFFFFF" fill-rule="evenodd"/><path d="M2750.5 446.5C2750.5 442.634 2753.63 439.5 2757.5 439.5 2761.37 439.5 2764.5 442.634 2764.5 446.5 2764.5 450.366 2761.37 453.5 2757.5 453.5 2753.63 453.5 2750.5 450.366 2750.5 446.5Z" stroke="#000000" stroke-miterlimit="8" fill="#FFFFFF" fill-rule="evenodd"/><path d="M2707.5 469C2707.5 464.858 2710.63 461.5 2714.5 461.5 2718.37 461.5 2721.5 464.858 2721.5 469 2721.5 473.142 2718.37 476.5 2714.5 476.5 2710.63 476.5 2707.5 473.142 2707.5 469Z" stroke="#000000" stroke-miterlimit="8" fill="#FFFFFF" fill-rule="evenodd"/><path d="M2735.5 469C2735.5 464.858 2738.86 461.5 2743 461.5 2747.14 461.5 2750.5 464.858 2750.5 469 2750.5 473.142 2747.14 476.5 2743 476.5 2738.86 476.5 2735.5 473.142 2735.5 469Z" stroke="#000000" stroke-miterlimit="8" fill="#FFFFFF" fill-rule="evenodd"/><path d="M0.400554-0.299259 9.11238 11.3614 8.31128 11.9599-0.400554 0.299259ZM8.15896 2.40203 9.30574 12.4556-0.0100366 8.5052C-0.264265 8.39739-0.382963 8.1039-0.275156 7.84967-0.167349 7.59544 0.126139 7.47675 0.380368 7.58455L8.90703 11.2003 8.21504 11.7173 7.1654 2.51536C7.13411 2.241 7.33115 1.99322 7.60551 1.96192 7.87988 1.93062 8.12766 2.12767 8.15896 2.40203Z" transform="matrix(-1 0 0 1 2737.8 427.5)"/><path d="M2748.89 427.191 2757.59 438.25 2756.8 438.868 2748.11 427.809ZM2756.41 429.317 2757.81 439.339 2748.4 435.618C2748.14 435.517 2748.01 435.226 2748.11 434.969 2748.22 434.713 2748.51 434.587 2748.76 434.688L2757.38 438.094 2756.7 438.628 2755.42 429.454C2755.38 429.181 2755.58 428.928 2755.85 428.89 2756.12 428.852 2756.38 429.043 2756.41 429.317Z"/><path d="M0.362795-0.344063 8.98591 8.74852 8.26032 9.43665-0.362795 0.344063ZM6.99093-0.0377915 9.30595 9.8126-0.408002 6.97911C-0.673097 6.90179-0.825313 6.6242-0.747987 6.35911-0.670661 6.09401-0.393074 5.94179-0.127979 6.01912L8.76312 8.61259 8.13637 9.20698 6.01745 0.190994C5.95427-0.0778246 6.12098-0.34696 6.3898-0.410137 6.65861-0.473315 6.92775-0.30661 6.99093-0.0377915Z" transform="matrix(-1 0 0 1 2723.8 452.5)"/><path d="M2733.86 452.156 2742.49 461.249 2741.76 461.937 2733.14 452.844ZM2740.49 452.462 2742.81 462.313 2733.09 459.479C2732.83 459.402 2732.67 459.124 2732.75 458.859 2732.83 458.594 2733.11 458.442 2733.37 458.519L2742.26 461.113 2741.64 461.707 2739.52 452.691C2739.45 452.422 2739.62 452.153 2739.89 452.09 2740.16 452.027 2740.43 452.193 2740.49 452.462Z"/><path d="M2812.5 422.5C2812.5 418.634 2815.63 415.5 2819.5 415.5 2823.37 415.5 2826.5 418.634 2826.5 422.5 2826.5 426.366 2823.37 429.5 2819.5 429.5 2815.63 429.5 2812.5 426.366 2812.5 422.5Z" stroke="#FFC000" stroke-miterlimit="8" fill="#FFFFFF" fill-rule="evenodd"/><path d="M2797.5 447C2797.5 442.858 2800.86 439.5 2805 439.5 2809.14 439.5 2812.5 442.858 2812.5 447 2812.5 451.142 2809.14 454.5 2805 454.5 2800.86 454.5 2797.5 451.142 2797.5 447Z" stroke="#FFC000" stroke-miterlimit="8" fill="#FFFFFF" fill-rule="evenodd"/><path d="M2826.5 446.5C2826.5 442.634 2829.86 439.5 2834 439.5 2838.14 439.5 2841.5 442.634 2841.5 446.5 2841.5 450.366 2838.14 453.5 2834 453.5 2829.86 453.5 2826.5 450.366 2826.5 446.5Z" stroke="#FFC000" stroke-miterlimit="8" fill="#FFFFFF" fill-rule="evenodd"/><path d="M2783.5 469C2783.5 464.858 2786.63 461.5 2790.5 461.5 2794.37 461.5 2797.5 464.858 2797.5 469 2797.5 473.142 2794.37 476.5 2790.5 476.5 2786.63 476.5 2783.5 473.142 2783.5 469Z" stroke="#FFC000" stroke-miterlimit="8" fill="#FFFFFF" fill-rule="evenodd"/><path d="M0.400554-0.299259 9.11238 11.3614 8.31128 11.9599-0.400554 0.299259ZM8.15896 2.40203 9.30574 12.4556-0.0100366 8.5052C-0.264265 8.39739-0.382963 8.1039-0.275156 7.84967-0.167349 7.59544 0.126139 7.47675 0.380368 7.58455L8.90703 11.2003 8.21504 11.7173 7.1654 2.51536C7.13411 2.241 7.33115 1.99322 7.60551 1.96192 7.87988 1.93062 8.12766 2.12767 8.15896 2.40203Z" fill="#FFC000" transform="matrix(-1 0 0 1 2814.8 427.5)"/><path d="M2824.89 427.191 2833.59 438.25 2832.8 438.868 2824.11 427.809ZM2832.41 429.317 2833.81 439.339 2824.4 435.618C2824.14 435.517 2824.01 435.226 2824.11 434.969 2824.22 434.713 2824.51 434.587 2824.76 434.688L2833.38 438.094 2832.7 438.628 2831.42 429.454C2831.38 429.181 2831.58 428.928 2831.85 428.89 2832.12 428.852 2832.38 429.043 2832.41 429.317Z" fill="#FFC000"/><path d="M0.362795-0.344063 8.98591 8.74852 8.26032 9.43665-0.362795 0.344063ZM6.99093-0.0377915 9.30595 9.8126-0.408002 6.97911C-0.673097 6.90179-0.825313 6.6242-0.747987 6.35911-0.670661 6.09401-0.393074 5.94179-0.127979 6.01912L8.76312 8.61259 8.13637 9.20698 6.01745 0.190994C5.95427-0.0778246 6.12098-0.34696 6.3898-0.410137 6.65861-0.473315 6.92775-0.30661 6.99093-0.0377915Z" fill="#FFC000" transform="matrix(-1 0 0 1 2799.8 452.5)"/><path d="M2735.5 318.5C2735.5 314.634 2738.86 311.5 2743 311.5 2747.14 311.5 2750.5 314.634 2750.5 318.5 2750.5 322.366 2747.14 325.5 2743 325.5 2738.86 325.5 2735.5 322.366 2735.5 318.5Z" stroke="#70AD47" stroke-miterlimit="8" fill="#FFFFFF" fill-rule="evenodd"/><path d="M2721.5 343C2721.5 338.858 2724.63 335.5 2728.5 335.5 2732.37 335.5 2735.5 338.858 2735.5 343 2735.5 347.142 2732.37 350.5 2728.5 350.5 2724.63 350.5 2721.5 347.142 2721.5 343Z" stroke="#70AD47" stroke-miterlimit="8" fill="#FFFFFF" fill-rule="evenodd"/><path d="M2750.5 342.5C2750.5 338.634 2753.63 335.5 2757.5 335.5 2761.37 335.5 2764.5 338.634 2764.5 342.5 2764.5 346.366 2761.37 349.5 2757.5 349.5 2753.63 349.5 2750.5 346.366 2750.5 342.5Z" stroke="#70AD47" stroke-miterlimit="8" fill="#FFFFFF" fill-rule="evenodd"/><path d="M2707.5 365C2707.5 360.858 2710.63 357.5 2714.5 357.5 2718.37 357.5 2721.5 360.858 2721.5 365 2721.5 369.142 2718.37 372.5 2714.5 372.5 2710.63 372.5 2707.5 369.142 2707.5 365Z" stroke="#70AD47" stroke-miterlimit="8" fill="#FFFFFF" fill-rule="evenodd"/><path d="M0.400554-0.299259 9.11238 11.3614 8.31128 11.9599-0.400554 0.299259ZM8.15896 2.40203 9.30574 12.4556-0.0100366 8.5052C-0.264265 8.39739-0.382963 8.1039-0.275156 7.84967-0.167349 7.59544 0.126139 7.47675 0.380368 7.58455L8.90703 11.2003 8.21504 11.7173 7.1654 2.51536C7.13411 2.241 7.33115 1.99322 7.60551 1.96192 7.87988 1.93062 8.12766 2.12767 8.15896 2.40203Z" fill="#70AD47" transform="matrix(-1 0 0 1 2737.8 323.5)"/><path d="M2748.89 323.191 2757.59 334.25 2756.8 334.868 2748.11 323.809ZM2756.41 325.317 2757.81 335.339 2748.4 331.618C2748.14 331.517 2748.01 331.226 2748.11 330.969 2748.22 330.713 2748.51 330.587 2748.76 330.688L2757.38 334.094 2756.7 334.628 2755.42 325.454C2755.38 325.181 2755.58 324.928 2755.85 324.89 2756.12 324.852 2756.38 325.043 2756.41 325.317Z" fill="#70AD47"/><path d="M0.362795-0.344063 8.98591 8.74852 8.26032 9.43665-0.362795 0.344063ZM6.99093-0.0377915 9.30595 9.8126-0.408002 6.97911C-0.673097 6.90179-0.825313 6.6242-0.747987 6.35911-0.670661 6.09401-0.393074 5.94179-0.127979 6.01912L8.76312 8.61259 8.13637 9.20698 6.01745 0.190994C5.95427-0.0778246 6.12098-0.34696 6.3898-0.410137 6.65861-0.473315 6.92775-0.30661 6.99093-0.0377915Z" fill="#70AD47" transform="matrix(-1 0 0 1 2723.8 348.5)"/><path d="M2764.5 365C2764.5 360.858 2767.86 357.5 2772 357.5 2776.14 357.5 2779.5 360.858 2779.5 365 2779.5 369.142 2776.14 372.5 2772 372.5 2767.86 372.5 2764.5 369.142 2764.5 365Z" stroke="#70AD47" stroke-miterlimit="8" fill="#FFFFFF" fill-rule="evenodd"/><path d="M2762.87 347.167 2771.51 356.856 2770.76 357.521 2762.13 347.833ZM2769.79 348.012 2771.79 357.929 2762.17 354.796C2761.91 354.71 2761.77 354.428 2761.85 354.166 2761.94 353.903 2762.22 353.76 2762.48 353.845L2771.29 356.713 2770.64 357.288 2768.81 348.21C2768.75 347.94 2768.93 347.676 2769.2 347.621 2769.47 347.566 2769.73 347.741 2769.79 348.012Z" fill="#70AD47"/><path d="M4.6523 4.80112 19.5426 22.6673 18.7744 23.3075 3.88411 5.44135ZM2.0491 8.70639 0 0 8.19457 3.58455ZM21.3776 19.4023 23.4267 28.1087 15.2321 24.5241Z" transform="matrix(-1 0 0 1 2706.93 377.5)"/><path d="M2784.85 382.58 2797.68 400.074 2796.87 400.665 2784.04 383.172ZM2782.01 386.317 2780.5 377.5 2788.46 381.586ZM2799.71 396.929 2801.21 405.745 2793.26 401.66Z"/><path d="M2744 383.167 2744 400.976 2743 400.976 2743 383.167ZM2739.5 384.5 2743.5 376.5 2747.5 384.5ZM2747.5 399.643 2743.5 407.643 2739.5 399.643Z"/><path d="M2966 411.667C2966 401.357 2974.36 393 2984.67 393L3156.33 393C3166.64 393 3175 401.357 3175 411.667L3175 486.333C3175 496.643 3166.64 505 3156.33 505L2984.67 505C2974.36 505 2966 496.643 2966 486.333Z" stroke="#000000" stroke-width="2" stroke-miterlimit="8" fill="none" fill-rule="evenodd"/><path d="M2999.77 380 3066.23 380C3074.94 380 3082 385.82 3082 393 3082 400.18 3074.94 406 3066.23 406L2999.77 406C2991.06 406 2984 400.18 2984 393 2984 385.82 2991.06 380 2999.77 380Z" stroke="#000000" stroke-width="2" stroke-miterlimit="8" fill="#FFE699" fill-rule="evenodd"/><text font-family="Times New Roman,Times New Roman_MSFontService,sans-serif" font-weight="400" font-size="16" transform="translate(2996.21 398)">Example(s)</text><path d="M3070.77 420.305 3070.77 481.698" stroke="#000000" stroke-width="1.33333" stroke-linejoin="round" stroke-miterlimit="10" fill="none" fill-rule="evenodd"/><path d="M2981.93 451.001 3159.6 451.001" stroke="#000000" stroke-width="1.33333" stroke-linejoin="round" stroke-miterlimit="10" fill="none" fill-rule="evenodd"/><path d="M2982.6 420.305 2982.6 481.698" stroke="#000000" stroke-width="1.33333" stroke-linejoin="round" stroke-miterlimit="10" fill="none" fill-rule="evenodd"/><path d="M3158.94 420.305 3158.94 481.698" stroke="#000000" stroke-width="1.33333" stroke-linejoin="round" stroke-miterlimit="10" fill="none" fill-rule="evenodd"/><path d="M2981.93 420.971 3159.6 420.971" stroke="#000000" stroke-width="1.33333" stroke-linejoin="round" stroke-miterlimit="10" fill="none" fill-rule="evenodd"/><path d="M2981.93 481.031 3159.6 481.031" stroke="#000000" stroke-width="1.33333" stroke-linejoin="round" stroke-miterlimit="10" fill="none" fill-rule="evenodd"/><text font-family="Times New Roman,Times New Roman_MSFontService,sans-serif" font-weight="700" font-size="13" transform="translate(3085.77 439)">Corrected</text><text font-family="Times New Roman,Times New Roman_MSFontService,sans-serif" font-weight="700" font-size="13" transform="translate(2996.68 439)">Erroneous</text><path d="M3080.94 456.801 3148.77 456.801 3148.77 471.801 3080.94 471.801Z" fill="#FFFF00" fill-rule="evenodd"/><text font-family="Times New Roman,Times New Roman_MSFontService,sans-serif" font-weight="400" font-size="13" transform="translate(3080.94 469)">There are …</text><path d="M2994.02 456.801 3059.35 456.801 3059.35 471.801 2994.02 471.801Z" fill="#FFFF00" fill-rule="evenodd"/><text font-family="Times New Roman,Times New Roman_MSFontService,sans-serif" font-weight="400" font-size="13" transform="translate(2994.02 469)">that have …</text><text font-family="Times New Roman,Times New Roman_MSFontService,sans-serif" font-weight="400" font-size="19" transform="translate(2897.7 443)">Most</text><text font-family="Times New Roman,Times New Roman_MSFontService,sans-serif" font-weight="400" font-size="19" transform="translate(2889.53 465)">Similar</text><path d="M0.12713-0.991886 5.77165-0.268428 11.4569 1.87233 17.004 5.29578 22.3793 9.89452 27.5515 15.5714 32.487 22.2349 37.1489 29.7953 41.4985 38.1639 45.4952 47.2517 49.0976 56.9698 52.2637 67.2288 54.9509 77.9396 57.1163 89.0125 58.7168 100.358 59.709 111.887 60.0486 123.479 60.3874 135.042 60.3842 134.986 61.3717 146.459 61.3656 146.405 62.9585 157.698 62.9498 157.646 65.105 168.667 65.0935 168.615 67.7677 179.274 67.7533 179.223 70.9032 189.43 70.8854 189.377 74.4678 199.041 74.4455 198.986 78.4172 208.017 78.3891 207.958 82.7068 216.266 82.6707 216.202 87.291 223.695 87.2434 223.625 92.1233 230.213 92.059 230.135 97.1551 235.728 97.066 235.642 102.335 240.15 102.21 240.059 107.609 243.391 107.393 243.291 111.872 244.748 111.253 246.65 106.661 245.156 101.094 241.72 95.7185 237.121 90.5464 231.444 85.611 224.781 80.9491 217.221 76.5995 208.852 72.6028 199.764 69.0004 190.046 65.8344 179.787 63.1472 169.076 60.9818 158.003 59.3814 146.658 58.3891 135.129 58.0495 123.537 57.7107 111.973 57.714 112.03 56.7264 100.557 56.7326 100.61 55.1396 89.3181 55.1483 89.3703 52.9931 78.3493 53.0046 78.4007 50.3303 67.7415 50.3448 67.793 47.1948 57.5862 47.2127 57.6389 43.6302 47.9747 43.6525 48.0297 39.6808 38.9988 39.7089 39.0574 35.3912 30.7502 35.4273 30.8139 30.8069 23.3208 30.8545 23.3911 25.9746 16.8026 26.039 16.8809 20.9428 11.2874 21.0319 11.3738 15.7628 6.8659 15.8877 6.95703 10.4888 3.62509 10.6616 3.70996 5.17623 1.64445 5.40149 1.70049-0.12713 0.991886ZM111.045 241.515 118.098 247.016 109.465 249.357Z" transform="matrix(1.83697e-16 1 1 -1.83697e-16 1896 241)"/><path d="M1952 390 2007.3 390 2007.3 392 1952 392ZM2005.97 387 2013.97 391 2005.97 395Z"/><path d="M2273 390 2332.5 390 2332.5 392 2273 392ZM2331.17 387 2339.17 391 2331.17 395Z"/><path d="M2060.1 211.005 2102.05 215.027 2143.62 219.161 2184.45 223.52 2204.46 225.818 2224.14 228.215 2243.45 230.723 2262.33 233.358 2280.74 236.133 2298.64 239.062 2315.97 242.159 2332.68 245.439 2348.74 248.916 2364.1 252.604 2378.8 256.663 2392.92 261.192 2406.49 266.115 2419.5 271.359 2431.99 276.849 2443.97 282.511 2455.44 288.273 2466.44 294.06 2476.97 299.797 2487.06 305.412 2496.71 310.832 2505.95 315.982 2505.94 315.977 2514.79 320.788 2514.77 320.779 2523.24 325.176 2523.21 325.163 2531.32 329.073 2531.29 329.055 2539.05 332.405 2539.02 332.392 2546.31 335.259 2546.3 335.254 2553.01 337.779 2552.99 337.774 2559.16 339.981 2559.14 339.975 2564.79 341.887 2564.78 341.881 2569.96 343.52 2569.94 343.513 2574.7 344.902 2574.68 344.896 2579.05 346.057 2579.02 346.051 2583.04 347.008 2583 346.999 2590.14 348.391 2590.08 348.381 2596.29 349.227 2596.23 349.221 2600.43 349.558 2600.27 351.551 2596.04 351.212 2589.78 350.359 2582.6 348.958 2578.55 347.994 2574.15 346.825 2569.37 345.43 2564.16 343.785 2558.49 341.867 2552.31 339.654 2545.59 337.123 2538.27 334.248 2530.47 330.883 2522.33 326.958 2513.84 322.549 2504.98 317.731 2495.73 312.576 2486.08 307.157 2486.08 307.159 2476 301.547 2476.01 301.551 2465.49 295.819 2465.5 295.826 2454.52 290.047 2454.54 290.056 2443.08 284.304 2443.1 284.314 2431.15 278.663 2431.17 278.674 2418.71 273.196 2418.74 273.208 2405.75 267.977 2405.79 267.989 2392.26 263.079 2392.29 263.091 2378.2 258.574 2378.24 258.586 2363.58 254.536 2363.61 254.545 2348.28 250.863 2348.31 250.868 2332.27 247.396 2332.29 247.4 2315.59 244.123 2315.61 244.126 2298.29 241.032 2298.31 241.034 2280.43 238.107 2280.44 238.109 2262.04 235.336 2262.05 235.338 2243.18 232.705 2243.19 232.706 2223.89 230.199 2223.9 230.2 2204.22 227.804 2204.23 227.805 2184.22 225.507 2184.23 225.508 2143.42 221.15 2143.42 221.151 2101.85 217.017 2101.85 217.018 2059.9 212.995ZM2599.29 346.474 2607 351 2598.75 354.456Z" fill="#172C51"/><path d="M2869 448 2959.99 448.225 2959.98 450.225 2869 450ZM2958.66 445.221 2966.65 449.241 2958.64 453.221Z"/><path d="M2549 438 2600.04 438.06 2600.04 440.06 2549 440ZM2598.71 435.058 2606.71 439.068 2598.7 443.058Z"/><path d="M1734 654.334C1734 648.627 1738.63 644 1744.33 644L2048.67 644C2054.37 644 2059 648.627 2059 654.334L2059 695.666C2059 701.373 2054.37 706 2048.67 706L1744.33 706C1738.63 706 1734 701.373 1734 695.666Z" stroke="#000000" stroke-width="2" stroke-miterlimit="8" fill="none" fill-rule="evenodd"/><path d="M1751.74 665.854 2041.03 665.854 2041.03 685.854 1751.74 685.854Z" fill="#00FF00" fill-rule="evenodd"/><text font-family="Times New Roman,Times New Roman_MSFontService,sans-serif" font-weight="400" font-size="19" transform="translate(1751.74 682)">So, they have to also prepare mentally.</text><path d="M1758.14 631 1800.86 631C1806.46 631 1811 636.82 1811 644 1811 651.18 1806.46 657 1800.86 657L1758.14 657C1752.54 657 1748 651.18 1748 644 1748 636.82 1752.54 631 1758.14 631Z" stroke="#000000" stroke-width="2" stroke-miterlimit="8" fill="#FFE699" fill-rule="evenodd"/><text font-family="Times New Roman,Times New Roman_MSFontService,sans-serif" font-weight="400" font-size="16" transform="translate(1762.68 650)">Input</text><path d="M2160 618.667C2160 608.358 2168.36 600 2178.67 600L2586.33 600C2596.64 600 2605 608.358 2605 618.667L2605 693.333C2605 703.642 2596.64 712 2586.33 712L2178.67 712C2168.36 712 2160 703.642 2160 693.333Z" stroke="#000000" stroke-width="2" stroke-miterlimit="8" fill="none" fill-rule="evenodd"/><path d="M2194.41 587 2263.59 587C2272.65 587 2280 592.82 2280 600 2280 607.18 2272.65 613 2263.59 613L2194.41 613C2185.35 613 2178 607.18 2178 600 2178 592.82 2185.35 587 2194.41 587Z" stroke="#000000" stroke-width="2" stroke-miterlimit="8" fill="#FFE699" fill-rule="evenodd"/><text font-family="Times New Roman,Times New Roman_MSFontService,sans-serif" font-weight="400" font-size="16" transform="translate(2192.43 606)">Example(s)</text><path d="M2382.88 627.742 2382.88 689.028" stroke="#000000" stroke-width="1.33333" stroke-linejoin="round" stroke-miterlimit="10" fill="none" fill-rule="evenodd"/><path d="M2175.33 658.332 2590.42 658.332" stroke="#000000" stroke-width="1.33333" stroke-linejoin="round" stroke-miterlimit="10" fill="none" fill-rule="evenodd"/><path d="M2175.99 627.742 2175.99 689.028" stroke="#000000" stroke-width="1.33333" stroke-linejoin="round" stroke-miterlimit="10" fill="none" fill-rule="evenodd"/><path d="M2589.76 627.742 2589.76 689.028" stroke="#000000" stroke-width="1.33333" stroke-linejoin="round" stroke-miterlimit="10" fill="none" fill-rule="evenodd"/><path d="M2175.33 628.409 2590.42 628.409" stroke="#000000" stroke-width="1.33333" stroke-linejoin="round" stroke-miterlimit="10" fill="none" fill-rule="evenodd"/><path d="M2175.33 688.362 2590.42 688.362" stroke="#000000" stroke-width="1.33333" stroke-linejoin="round" stroke-miterlimit="10" fill="none" fill-rule="evenodd"/><text font-family="Times New Roman,Times New Roman_MSFontService,sans-serif" font-weight="700" font-size="15" transform="translate(2454.57 647)">Corrected</text><text font-family="Times New Roman,Times New Roman_MSFontService,sans-serif" font-weight="700" font-size="15" transform="translate(2246.43 647)">Erroneous</text><path d="M2393.73 664.132 2431.57 664.132 2431.57 680.132 2393.73 680.132Z" fill="#FFFF00" fill-rule="evenodd"/><path d="M2431.57 664.132 2449.4 664.132 2449.4 680.132 2431.57 680.132Z" fill="#FFFF00" fill-rule="evenodd"/><path d="M2449.4 664.132 2453.07 664.132 2453.07 680.132 2449.4 680.132Z" fill="#FFFF00" fill-rule="evenodd"/><path d="M2453.07 664.132 2578.9 664.132 2578.9 680.132 2453.07 680.132Z" fill="#FFFF00" fill-rule="evenodd"/><text font-family="Times New Roman,Times New Roman_MSFontService,sans-serif" font-weight="400" font-size="15" transform="translate(2393.73 677)">There</text><text font-family="Times New Roman,Times New Roman_MSFontService,sans-serif" font-weight="400" font-size="15" transform="translate(2431.57 677)">are</text><text font-family="Times New Roman,Times New Roman_MSFontService,sans-serif" font-weight="400" font-size="15" transform="translate(2449.4 677)"></text><text font-family="Times New Roman,Times New Roman_MSFontService,sans-serif" font-weight="400" font-size="15" transform="translate(2453.07 677)">also limitations there.</text><path d="M2190.93 664.132 2247.77 664.132 2247.77 680.132 2190.93 680.132Z" fill="#FFFF00" fill-rule="evenodd"/><path d="M2247.77 664.132 2367.93 664.132 2367.93 680.132 2247.77 680.132Z" fill="#FFFF00" fill-rule="evenodd"/><text font-family="Times New Roman,Times New Roman_MSFontService,sans-serif" font-weight="400" font-size="15" transform="translate(2190.93 677)">that have</text><text font-family="Times New Roman,Times New Roman_MSFontService,sans-serif" font-weight="400" font-size="15" transform="translate(2247.77 677)">limitation also there.</text><path d="M1707 180.484C1707 164.201 1720.2 151 1736.48 151L3170.52 151C3186.8 151 3200 164.201 3200 180.484L3200 1015.52C3200 1031.8 3186.8 1045 3170.52 1045L1736.48 1045C1720.2 1045 1707 1031.8 1707 1015.52Z" stroke="#7F7F7F" stroke-width="4" stroke-miterlimit="8" stroke-dasharray="4 4" fill="none" fill-rule="evenodd"/><path d="M0.102291-0.994754 6.22398-0.365257 12.2349 1.43823 17.844 4.23457 22.8686 7.86097 27.1246 12.1611 30.4222 16.9846 32.5482 22.1518 33.1216 24.8714 33.3119 27.5231 33.4973 30.1067 33.4783 29.972 34.0187 32.5354 33.965 32.3612 36.0162 37.3466 35.917 37.1627 39.1042 41.8247 38.9895 41.6856 43.1234 45.8625 42.9979 45.7551 47.8893 49.2853 47.7502 49.2012 53.2096 51.9229 53.0173 51.8506 58.2896 53.2344 57.7819 55.1689 52.4097 53.7589 46.7849 50.9547 41.7603 47.3283 37.5043 43.0281 34.2066 38.2047 32.0806 33.0375 31.5073 30.3178 31.317 27.6662 31.1316 25.0826 31.1505 25.2173 30.6101 22.6539 30.6638 22.8281 28.6126 17.8427 28.7119 18.0266 25.5246 13.3646 25.6394 13.5037 21.5054 9.32677 21.631 9.4342 16.7396 5.90403 16.8787 5.9881 11.4193 3.26636 11.5781 3.32923 5.74002 1.57762 5.92511 1.61456-0.102291 0.994754ZM57.3097 50.0483 64.6289 55.1893 56.1246 57.96Z" transform="matrix(1.83697e-16 1 1 -1.83697e-16 1896 706)"/><path d="M2383.94 712.16 2383.7 713.669 2382.93 715.264 2381.74 716.774 2380.16 718.22 2378.21 719.62 2375.88 720.995 2370.23 723.637 2363.26 726.18 2355.07 728.607 2345.78 730.899 2335.49 733.039 2324.32 735.007 2312.36 736.78 2299.73 738.339 2286.55 739.663 2272.93 740.729 2258.96 741.518 2230.5 742.174 2202.06 742.829 2202.09 742.828 2188.15 743.615 2188.17 743.613 2174.57 744.678 2174.59 744.676 2161.43 745.997 2161.45 745.995 2148.85 747.551 2148.88 747.548 2136.94 749.318 2136.97 749.313 2125.82 751.276 2125.85 751.27 2115.6 753.403 2115.63 753.395 2106.38 755.678 2106.43 755.665 2098.29 758.076 2098.35 758.057 2091.45 760.575 2091.53 760.541 2085.96 763.145 2086.05 763.1 2083.8 764.427 2084.03 764.239 2082.72 765.676 2081.24 764.329 2082.66 762.781 2085.07 761.353 2090.72 758.711 2097.7 756.168 2105.88 753.741 2115.17 751.449 2125.46 749.309 2136.64 747.341 2148.59 745.568 2161.22 744.008 2174.4 742.685 2188.03 741.618 2202 740.83 2230.45 740.174 2258.89 739.519 2258.86 739.52 2272.8 738.733 2272.78 738.735 2286.39 737.67 2286.36 737.672 2299.52 736.351 2299.5 736.353 2312.1 734.797 2312.08 734.8 2324.01 733.03 2323.98 733.034 2335.13 731.072 2335.1 731.078 2345.36 728.945 2345.32 728.953 2354.57 726.67 2354.53 726.682 2362.66 724.271 2362.6 724.291 2369.51 721.773 2369.43 721.807 2374.99 719.203 2374.91 719.248 2377.15 717.921 2377.08 717.97 2378.95 716.629 2378.85 716.704 2380.33 715.353 2380.22 715.471 2381.29 714.112 2381.18 714.299 2381.83 712.935 2381.74 713.208 2381.97 711.84ZM2085.99 766.324 2078 770.348 2079.57 761.543Z"/><path d="M0.024891-0.99969 16.4775-0.590043 32.8245 0.605735 48.913 2.53459 64.6152 5.14428 79.8035 8.38272 94.3502 12.1981 108.128 16.5387 121.01 21.3536 132.869 26.592 143.579 32.2046 153.003 38.1366 157.211 41.2207 161.044 44.3633 164.496 47.5661 167.548 50.8247 170.186 54.135 172.39 57.4932 174.156 60.9238 175.215 64.4524 173.3 65.0275 172.267 61.5871 172.336 61.7574 170.636 58.4556 170.689 58.5465 168.539 55.2709 168.593 55.3453 166.009 52.1023 166.061 52.1628 163.06 48.959 163.109 49.0083 159.706 45.8501 159.753 45.8905 155.964 42.7846 156.007 42.8178 151.849 39.7706 151.907 39.8103 142.547 33.9183 142.616 33.9577 131.971 28.379 132.031 28.408 120.229 23.1948 120.283 23.2168 107.453 18.4214 107.502 18.4384 93.7725 14.113 93.8193 14.1265 79.3185 10.3232 79.3637 10.3339 64.2203 7.10504 64.2649 7.11349 48.6075 4.51125 48.6524 4.51767 32.6095 2.59427 32.6555 2.59872 16.3555 1.40638 16.4036 1.40874-0.024891 0.99969ZM177.95 62.7038 175.466 71.2963 170.082 64.1536Z" transform="matrix(1 0 0 -1 2670 892.296)"/><path d="M0.000566714-1 133.387-0.924408 133.386 1.07559-0.000566714 1ZM132.055-3.92516 140.053 0.0793701 132.051 4.07484Z" transform="matrix(1 0 0 -1 2422 893.079)"/><path d="M1712 568 3195.46 568" stroke="#7F7F7F" stroke-width="4" stroke-miterlimit="8" stroke-dasharray="4 4" fill="none" fill-rule="evenodd"/><text font-family="Times New Roman,Times New Roman_MSFontService,sans-serif" font-weight="400" font-size="24" transform="translate(2938.69 198)">ICL Example Selection</text><text font-family="Times New Roman,Times New Roman_MSFontService,sans-serif" font-weight="400" font-size="24" transform="translate(2782.96 615)">Prompt Construction &amp; LLM Inference</text><path d="M3071.87 505.219 3071.33 507.617 3069.68 510.085 3067.11 512.424 3063.67 514.686 3059.38 516.9 3054.25 519.077 3048.32 521.218 3041.62 523.325 3034.16 525.393 3025.99 527.42 3017.12 529.403 3007.6 531.337 2997.45 533.218 2986.7 535.043 2975.39 536.806 2963.55 538.505 2951.2 540.133 2938.38 541.688 2925.11 543.165 2911.44 544.559 2897.4 545.867 2883 547.084 2853.3 549.227 2822.6 550.953 2791.13 552.23 2759.17 553.021 2726.95 553.293 2694.75 553.564 2694.77 553.564 2662.82 554.355 2662.83 554.354 2631.39 555.63 2631.4 555.629 2600.71 557.355 2600.73 557.354 2571.04 559.496 2571.05 559.495 2556.67 560.711 2556.68 560.71 2542.64 562.017 2542.65 562.016 2528.99 563.41 2529 563.409 2515.74 564.885 2515.75 564.884 2502.94 566.437 2502.95 566.436 2490.61 568.063 2490.63 568.062 2478.79 569.758 2478.8 569.756 2467.5 571.518 2467.52 571.516 2456.78 573.338 2456.8 573.335 2446.66 575.214 2446.68 575.21 2437.18 577.141 2437.2 577.137 2428.35 579.115 2428.38 579.109 2420.22 581.131 2420.25 581.124 2412.83 583.184 2412.86 583.174 2406.19 585.269 2406.23 585.256 2400.34 587.381 2400.4 587.361 2395.33 589.512 2395.4 589.48 2391.18 591.653 2391.36 591.541 2387.33 594.813 2386.07 593.26 2390.18 589.923 2394.51 587.686 2399.64 585.509 2405.57 583.367 2412.27 581.261 2419.73 579.193 2427.91 577.165 2436.77 575.183 2446.29 573.249 2456.44 571.367 2467.19 569.543 2478.5 567.779 2490.35 566.081 2502.7 564.452 2515.52 562.898 2528.78 561.421 2542.45 560.026 2556.5 558.719 2570.89 557.502 2600.59 555.359 2631.3 553.632 2662.76 552.355 2694.73 551.564 2726.94 551.293 2759.14 551.021 2759.12 551.022 2791.08 550.231 2791.06 550.231 2822.51 548.956 2822.49 548.956 2853.18 547.23 2853.17 547.231 2882.85 545.089 2882.84 545.09 2897.22 543.874 2897.22 543.875 2911.25 542.568 2911.25 542.569 2924.91 541.176 2924.9 541.177 2938.15 539.701 2938.14 539.702 2950.95 538.148 2950.94 538.15 2963.28 536.522 2963.27 536.524 2975.1 534.827 2975.09 534.829 2986.39 533.068 2986.38 533.07 2997.11 531.248 2997.09 531.25 3007.23 529.372 3007.21 529.375 3016.72 527.445 3016.7 527.449 3025.54 525.471 3025.52 525.476 3033.67 523.455 3033.64 523.462 3041.07 521.402 3041.04 521.411 3047.71 519.316 3047.67 519.33 3053.55 517.205 3053.5 517.225 3058.56 515.074 3058.49 515.105 3062.71 512.932 3062.62 512.986 3065.95 510.795 3065.83 510.892 3068.25 508.689 3068.09 508.873 3069.56 506.661 3069.42 506.997 3069.92 504.781ZM2390.76 595.144 2383 599.585 2384.11 590.71Z"/></g></svg>